<svg fill="white" id="zapatos" width="100" height="76" viewBox="0 0 128 76" xmlns="http://www.w3.org/2000/svg">
<path d="M117.065 0C117.065 0 107.652 7.11111 105.244 6C105.244 12 98.6761 51.3333 98.6761 54.6667C98.6761 58 92.7654 61.3333 93.4221 66C94.0788 70.6667 96.7058 76 109.184 76C121.662 76 122.319 59.3333 124.289 54.6667C126.259 50 122.319 35.3333 126.259 29.3333C129.412 24.5333 127.573 16.6667 126.259 13.3333L117.065 0Z"/>
<path d="M15.2693 3.33333L3.44792 6C3.44792 19.7778 3.05387 48.8 1.47768 54.6667C-0.49256 62 -0.49256 68 1.47768 71.3333C3.44792 74.6667 17.8963 73.3333 22.4936 71.3333C27.0908 69.3333 25.7773 54.6667 25.7773 52C25.7773 49.3333 19.8666 24 19.8666 15.3333C19.8666 8.4 16.8018 4.44444 15.2693 3.33333Z" />
</svg>
