<svg width="43" height="43" viewBox="0 0 43 43" fill="none" xmlns="http://www.w3.org/2000/svg">
<path d="M28.4327 20.6602C28.9001 20.6602 29.2789 20.2841 29.2789 19.8203C29.2789 19.3565 28.9001 18.9805 28.4327 18.9805C27.9653 18.9805 27.5864 19.3565 27.5864 19.8203C27.5864 20.2841 27.9653 20.6602 28.4327 20.6602Z" fill="#EF6BAA"/>
<path d="M28.5779 23.4189C28.1159 23.3508 27.6852 23.6678 27.6168 24.1266C27.3855 25.6765 26.0653 26.962 24.0854 27.5654C21.9692 28.2103 19.0318 27.9941 17.2398 26.0575C16.9236 25.7159 16.3883 25.6933 16.0441 26.0069C15.6999 26.3207 15.6771 26.852 15.9932 27.1936C17.0305 28.3147 18.4395 29.0788 20.0677 29.4032C20.6426 29.5177 21.2391 29.5746 21.8394 29.5746C22.7667 29.5746 23.7032 29.439 24.5823 29.1711C27.2014 28.3729 28.9617 26.5792 29.291 24.3727C29.3595 23.9139 29.0402 23.4868 28.5779 23.4189Z" fill="#EF6BAA"/>
<path d="M40.3399 15.9915C38.8018 14.2219 36.6789 13.0745 34.1235 12.6137C36.57 10.9752 38.6803 9.34452 40.1849 7.92166C42.479 5.75226 43.2483 4.22777 42.606 3.1243C41.8912 1.89528 39.8279 1.90376 36.1124 3.15126C32.973 4.20527 29.0621 6.03587 25.1003 8.30597C24.4159 8.69801 23.738 9.09945 23.0747 9.50401C22.5827 8.12524 22.9072 6.55028 23.9926 5.18461C24.8056 4.16168 24.9871 2.86244 24.4664 1.79374C23.9206 0.673639 22.7226 0.00302344 21.2599 0H21.2201C16.0574 0 11.0077 2.02159 7.00128 5.69238C2.98985 9.3677 0.534007 14.2331 0.0861678 19.3922C-0.452644 25.6053 1.54859 31.5123 5.72106 36.0248C9.81982 40.4577 15.6307 43 21.6635 43C24.9115 43 27.9605 42.4103 30.7259 41.247C33.2545 40.1833 35.4999 38.6646 37.3999 36.7327C39.1616 34.9414 40.5506 32.8793 41.5282 30.6036C42.4586 28.4381 42.9669 26.1433 42.9984 23.9674C43.0441 20.803 42.1249 18.045 40.3399 15.9915ZM23.1736 11.4209C24.0693 10.8603 25.0021 10.3017 25.9464 9.76066C29.6096 7.66173 33.2573 5.93291 36.2177 4.89259C39.4767 3.74747 40.811 3.82221 41.122 3.97003C41.0951 4.16546 40.8506 5.03495 38.712 6.98943C36.9262 8.6215 34.3185 10.5408 31.3692 12.3937C30.4369 12.9797 29.4665 13.562 28.4853 14.1244C27.1326 14.8992 25.7808 15.6238 24.4542 16.2872C24.1894 15.5205 23.8502 14.7765 23.4373 14.0666C23.0371 13.3787 22.5729 12.7329 22.0541 12.1353C22.4213 11.8965 22.7949 11.6576 23.1736 11.4209ZM22.9209 17.0322C20.5313 18.1568 18.3387 19.0142 16.5877 19.5116C16.4965 19.0771 16.3363 18.6572 16.1089 18.266C15.8933 17.8952 15.6229 17.5637 15.3104 17.2779C16.6213 16.0224 18.4663 14.5678 20.6388 13.0796C21.1432 13.6391 21.5903 14.251 21.9716 14.9063C22.3658 15.5841 22.6832 16.2969 22.9209 17.0322ZM41.306 23.9433C41.1853 32.3004 33.6412 41.3203 21.6635 41.3203C16.1035 41.3203 10.7472 38.9763 6.96819 34.8893C3.12 30.7275 1.27491 25.275 1.77251 19.5363C2.62714 9.69012 11.3513 1.67969 21.2201 1.67969H21.2581C22.0677 1.68137 22.6818 1.98942 22.9427 2.52499C23.1826 3.01731 23.0783 3.62267 22.6636 4.14438C21.1384 6.06342 20.7559 8.42363 21.6177 10.4136C21.164 10.7037 20.7181 10.9951 20.2873 11.2841C20.2852 11.2854 20.2832 11.2867 20.2813 11.2881C17.5902 13.0901 15.3179 14.8826 13.8059 16.3911C12.6593 16.0021 11.3994 16.1155 10.3285 16.7289C8.57032 17.7368 6.26173 22.4337 5.81685 23.365C5.6977 23.6142 5.70963 23.9057 5.84859 24.1447C5.98763 24.3836 6.23601 24.5396 6.51307 24.5619C6.9808 24.5995 8.309 24.6946 9.78733 24.6946C11.5812 24.6946 13.596 24.5545 14.5599 24.002C15.604 23.4038 16.3277 22.4044 16.5784 21.2555C18.6537 20.7149 21.3651 19.6573 24.3018 18.2374C25.9472 17.4426 27.6394 16.5483 29.3316 15.5791C30.1899 15.0871 31.0385 14.5799 31.8633 14.0684C31.8683 14.0686 31.8731 14.0694 31.8781 14.0696C38.9316 14.2703 41.3731 19.3016 41.306 23.9433ZM14.9789 20.5233C14.9248 21.3679 14.4519 22.1244 13.7136 22.5474C12.9133 23.0062 10.164 23.068 7.9066 22.9655C8.94538 20.9748 10.3738 18.6429 11.1749 18.1836C11.9313 17.7503 12.8458 17.7313 13.6216 18.133C14.0481 18.3534 14.4011 18.6895 14.6428 19.1054C14.8942 19.5379 15.0104 20.0282 14.9789 20.5233Z" fill="#EF6BAA"/>
<path d="M14.8926 5.1936C13.0261 5.1936 11.5076 6.70062 11.5076 8.55298C11.5076 10.4053 13.0261 11.9124 14.8926 11.9124C16.7591 11.9124 18.2776 10.4053 18.2776 8.55298C18.2776 6.70062 16.7591 5.1936 14.8926 5.1936ZM14.8926 10.2327C13.9593 10.2327 13.2001 9.47916 13.2001 8.55298C13.2001 7.6268 13.9593 6.87329 14.8926 6.87329C15.8259 6.87329 16.5851 7.6268 16.5851 8.55298C16.5851 9.47916 15.8259 10.2327 14.8926 10.2327Z" fill="#EF6BAA"/>
<path d="M10.6614 27.761C8.79489 27.761 7.27637 29.268 7.27637 31.1204C7.27637 32.9727 8.79489 34.4797 10.6614 34.4797C12.5279 34.4797 14.0464 32.9727 14.0464 31.1204C14.0464 29.268 12.5279 27.761 10.6614 27.761ZM10.6614 32.8001C9.72814 32.8001 8.96888 32.0465 8.96888 31.1204C8.96888 30.1942 9.72814 29.4407 10.6614 29.4407C11.5947 29.4407 12.3539 30.1942 12.3539 31.1204C12.3539 32.0465 11.5947 32.8001 10.6614 32.8001Z" fill="#EF6BAA"/>
<path d="M19.124 32.8002C17.2575 32.8002 15.739 34.3072 15.739 36.1595C15.739 38.0119 17.2575 39.5189 19.124 39.5189C20.9905 39.5189 22.5091 38.0119 22.5091 36.1595C22.5091 34.3072 20.9905 32.8002 19.124 32.8002ZM19.124 37.8392C18.1908 37.8392 17.4315 37.0857 17.4315 36.1595C17.4315 35.2334 18.1908 34.4799 19.124 34.4799C20.0573 34.4799 20.8166 35.2334 20.8166 36.1595C20.8166 37.0857 20.0573 37.8392 19.124 37.8392Z" fill="#EF6BAA"/>
<path d="M29.2788 31.1205C27.4123 31.1205 25.8938 32.6275 25.8938 34.4799C25.8938 36.3322 27.4123 37.8392 29.2788 37.8392C31.1453 37.8392 32.6639 36.3322 32.6639 34.4799C32.6639 32.6275 31.1453 31.1205 29.2788 31.1205ZM29.2788 36.1595C28.3456 36.1595 27.5863 35.406 27.5863 34.4799C27.5863 33.5537 28.3456 32.8002 29.2788 32.8002C30.2121 32.8002 30.9713 33.5537 30.9713 34.4799C30.9713 35.406 30.2121 36.1595 29.2788 36.1595Z" fill="#EF6BAA"/>
<path d="M36.0491 22.722C34.1826 22.722 32.6641 24.2291 32.6641 26.0814C32.6641 27.9338 34.1826 29.4408 36.0491 29.4408C37.9156 29.4408 39.4341 27.9338 39.4341 26.0814C39.4341 24.2291 37.9156 22.722 36.0491 22.722ZM36.0491 27.7611C35.1158 27.7611 34.3566 27.0076 34.3566 26.0814C34.3566 25.1552 35.1158 24.4017 36.0491 24.4017C36.9823 24.4017 37.7416 25.1552 37.7416 26.0814C37.7416 27.0076 36.9823 27.7611 36.0491 27.7611Z" fill="#EF6BAA"/>
</svg>
