<svg width="56" height="56" viewBox="0 0 56 56" fill="none" xmlns="http://www.w3.org/2000/svg">
<g clip-path="url(#clip0)">
<path d="M51.1559 53.7955H39.2302C41.6185 52.6667 43.8188 51.1209 45.7385 49.1949C50.0917 44.828 52.489 39.0269 52.489 32.8609C52.489 32.3127 52.4659 31.7594 52.4189 31.169C52.4168 31.1459 52.4133 31.1232 52.4099 31.1002C51.9874 25.9642 49.6879 20.989 45.9123 17.0215C45.9692 16.6614 45.9999 16.2918 45.9999 15.9154C45.9999 15.451 45.9534 14.9977 45.8671 14.558L49.121 12.3663C49.3632 12.2031 49.5307 11.9505 49.5867 11.6639C49.6426 11.3772 49.5824 11.0802 49.4192 10.838L48.5835 9.5977L50.8283 8.08568C51.3324 7.74601 51.4661 7.06199 51.1265 6.55741L47.594 1.31296C47.4308 1.07071 47.1783 0.903232 46.8916 0.84769C46.6049 0.791721 46.308 0.851963 46.0657 1.01517L43.821 2.52677L43.0498 1.38132C42.7101 0.87717 42.0257 0.743869 41.5215 1.08353L39.2593 2.60709L37.8306 0.48624C37.6656 0.241 37.4097 0.0726649 37.1192 0.0188319C36.8287 -0.0354285 36.5292 0.029513 36.2873 0.198275L33.2953 2.28751C32.7967 2.63572 32.675 3.3223 33.0232 3.8209C33.3714 4.3195 34.0575 4.44126 34.5561 4.09306L36.63 2.64469L37.4328 3.83714L27.1383 10.7713L26.3248 9.56352L27.3434 8.87694C27.8479 8.53727 27.9812 7.85325 27.6416 7.3491C27.3019 6.84452 26.6175 6.71122 26.1133 7.05088L24.1813 8.35185C23.6772 8.69151 23.5434 9.37596 23.8831 9.88011L25.3118 12.0014L23.1798 13.4374C22.6753 13.777 22.542 14.4615 22.8816 14.9656L23.7079 16.1927L23.158 16.5635C22.2595 17.1685 21.6507 18.0871 21.4431 19.1505C21.2359 20.2139 21.4546 21.294 22.06 22.1925L22.2365 22.4544C23.0188 23.6161 24.3009 24.2429 25.6062 24.2429C26.385 24.2429 27.172 24.0194 27.8654 23.5524L28.4157 23.182L29.251 24.4223C29.4142 24.6646 29.6667 24.832 29.9534 24.888C30.0235 24.9017 30.094 24.9081 30.164 24.9081C30.3815 24.9081 30.596 24.8436 30.7793 24.7205L35.1013 21.8093C36.2096 22.536 37.5332 22.9607 38.9546 22.9607C39.0986 22.9607 39.2409 22.9551 39.3827 22.9466C41.5856 25.6592 43.1323 28.7956 43.5514 31.4291C43.5561 31.4591 43.5625 31.4885 43.5693 31.5172C43.6407 31.9901 43.6783 32.4426 43.6783 32.8609C43.6783 36.6676 42.2009 40.2518 39.5186 42.9533C36.8376 45.653 33.2667 47.1557 29.4638 47.1843C29.4582 47.1843 29.4527 47.1852 29.4471 47.1852C29.4407 47.1852 29.4343 47.1843 29.4279 47.1843C29.4245 47.1843 29.4206 47.1843 29.4168 47.1843L29.3283 47.1856C29.3279 47.1856 29.3279 47.1856 29.3275 47.1856L29.3091 47.186C25.1567 47.186 21.294 45.4313 18.6164 42.4094H20.5356C21.1436 42.4094 21.6366 41.9163 21.6366 41.3084V35.6397C21.6366 35.0317 21.1436 34.5386 20.5356 34.5386H14.4572V32.7177C14.4584 32.6759 14.4593 32.6109 14.4572 32.5263V31.3535C16.1811 31.2642 17.6325 30.7033 18.7796 29.6757C21.0509 27.6416 21.2192 24.5342 21.2252 24.4031C21.2397 24.0801 21.1124 23.7669 20.8757 23.5464C20.639 23.3264 20.3177 23.2213 19.9964 23.2589C17.7371 23.5247 14.7152 24.3984 13.1481 27.0507C12.8388 27.5741 12.6362 28.0834 12.5034 28.5388C11.1289 27.3583 9.32508 26.8961 7.8874 26.7269C7.56653 26.6888 7.24482 26.7944 7.00855 27.0144C6.77185 27.2349 6.64411 27.548 6.65906 27.871C6.66419 27.983 6.80732 30.6302 8.74488 32.3657C9.68653 33.2091 10.8636 33.6867 12.2547 33.7914V34.5386H4.81976C4.21179 34.5386 3.71875 35.0317 3.71875 35.6397V41.3084C3.71875 41.9163 4.21179 42.4094 4.81976 42.4094H8.22791C9.98817 46.2931 12.7751 49.6038 16.3238 52.0143C17.3219 52.6924 18.3643 53.2862 19.4423 53.7955H6.44031C5.83234 53.7955 5.3393 54.2886 5.3393 54.8965C5.3393 55.5045 5.83234 55.9975 6.44031 55.9975H29.1344C29.1925 55.998 29.2506 55.9992 29.3091 55.9992L29.3266 55.9988L29.3506 55.9992C29.3685 55.9992 29.3864 55.9988 29.4044 55.9984C29.4151 55.9988 29.4262 56.0001 29.4369 56.0001H29.4428C29.4924 55.9997 29.5415 55.998 29.5907 55.9975H51.1559C51.7639 55.9975 52.257 55.5045 52.257 54.8965C52.257 54.2886 51.7639 53.7955 51.1559 53.7955ZM46.3827 3.45646L48.6852 6.87443L47.3535 7.77122L45.0514 4.35325L46.3827 3.45646ZM26.6354 21.7264C25.7878 22.2972 24.6338 22.072 24.0625 21.2244L23.8861 20.9625C23.3153 20.1148 23.5404 18.9608 24.3881 18.39L24.9384 18.0192L27.1853 21.3555L26.6354 21.7264ZM15.0438 28.171C15.7453 26.9836 16.9835 26.1621 18.7343 25.7199C18.4959 26.4658 18.0665 27.3639 17.2979 28.0466C16.6007 28.6661 15.7052 29.0302 14.6251 29.134C14.7118 28.8409 14.8438 28.5093 15.0438 28.171ZM10.2261 30.7362C9.73225 30.2982 9.41523 29.7449 9.21229 29.2352C10.9969 29.7821 11.7386 30.7725 12.0445 31.5509C11.3186 31.4377 10.7098 31.1651 10.2261 30.7362ZM5.92078 36.7407H19.435V40.2074H16.3999C16.3981 40.2074 16.3969 40.2074 16.3956 40.2074H5.92078V36.7407ZM30.8442 49.3235C30.8814 49.3201 30.9186 49.3171 30.9557 49.3137C34.7941 48.9561 38.3556 47.2847 41.1084 44.5196C44.2123 41.4015 45.9217 37.2606 45.9217 32.8609C45.9217 32.6972 45.9162 32.5297 45.9076 32.3597H50.2374C50.2421 32.528 50.2451 32.6951 50.2451 32.8609C50.2451 38.433 48.0806 43.6775 44.1504 47.6269C40.4846 51.3102 35.6866 53.4635 30.5379 53.7596V49.3483C30.5674 49.3462 30.5964 49.3432 30.6255 49.341C30.6985 49.3359 30.7712 49.3299 30.8442 49.3235ZM38.9546 20.7587C36.2839 20.7587 34.1114 18.5861 34.1114 15.9154C34.1114 13.2451 36.2839 11.0721 38.9546 11.0721C41.6254 11.0721 43.7979 13.2447 43.7979 15.9154C43.7979 18.5861 41.6254 20.7587 38.9546 20.7587ZM30.4623 22.2792L25.3229 14.6486L41.8386 3.52482L46.9779 11.155L45.0767 12.4355C43.8624 10.3082 41.5741 8.8701 38.9546 8.8701C35.0697 8.8701 31.9093 12.0304 31.9093 15.9154C31.9093 17.5629 32.4793 19.0787 33.4303 20.2797L30.4623 22.2792ZM45.0826 19.3851C47.7957 22.5317 49.5375 26.2744 50.09 30.1555H45.5441C44.9613 27.6309 43.621 24.8995 41.7386 22.386C43.1523 21.7755 44.3268 20.7147 45.0826 19.3851ZM10.7235 42.4303L15.8158 42.4115C18.7006 46.5255 23.2862 49.0659 28.3269 49.3594V53.772C24.477 53.5866 20.7851 52.3565 17.594 50.1866C14.6729 48.2007 12.3222 45.5411 10.7235 42.4303Z" fill="#63D1B7"/>
<path d="M32.7259 52.5013C32.7699 52.5013 32.8143 52.4983 32.8596 52.4932C36.2007 52.0882 39.3742 50.6048 41.795 48.316C42.2368 47.8986 42.2564 47.2017 41.8386 46.7595C41.4212 46.3182 40.7243 46.2985 40.2821 46.716C38.2014 48.6834 35.4713 49.9588 32.5947 50.307C31.991 50.3805 31.5608 50.9286 31.6338 51.5328C31.7017 52.0912 32.1768 52.5013 32.7259 52.5013Z" fill="#63D1B7"/>
<path d="M43.1724 44.7457C43.2912 45.2532 43.7437 45.5959 44.2435 45.5959C44.3264 45.5959 44.411 45.5865 44.4956 45.5664C45.0878 45.428 45.4552 44.8354 45.3163 44.2432L45.3074 44.2056C45.1689 43.6139 44.5764 43.2465 43.9842 43.3849C43.3925 43.5237 43.025 44.1159 43.1635 44.7081L43.1724 44.7457Z" fill="#63D1B7"/>
<path d="M29.2595 5.77393C29.3783 6.2815 29.8307 6.62372 30.3302 6.62372C30.4135 6.62372 30.4981 6.61432 30.5827 6.59424C31.1748 6.45539 31.5418 5.86322 31.403 5.27106L31.3944 5.23346C31.2556 4.6413 30.663 4.27429 30.0708 4.41315C29.4791 4.552 29.1117 5.14459 29.2505 5.73633L29.2595 5.77393Z" fill="#63D1B7"/>
<path d="M38.9547 12.7303C37.1987 12.7303 35.7695 14.1595 35.7695 15.9155C35.7695 17.6719 37.1987 19.1006 38.9547 19.1006C40.7106 19.1006 42.1398 17.6719 42.1398 15.9155C42.1398 14.1595 40.7106 12.7303 38.9547 12.7303ZM38.9547 16.8986C38.4125 16.8986 37.9716 16.4576 37.9716 15.9155C37.9716 15.3737 38.4125 14.9324 38.9547 14.9324C39.4968 14.9324 39.9378 15.3733 39.9378 15.9155C39.9378 16.4576 39.4968 16.8986 38.9547 16.8986Z" fill="#63D1B7"/>
</g>
<defs>
<clipPath id="clip0">
<rect width="56" height="56" fill="white"/>
</clipPath>
</defs>
</svg>
