<svg width="44" height="44" viewBox="0 0 44 44" fill="none" xmlns="http://www.w3.org/2000/svg">
<g clip-path="url(#clip0)">
<path d="M39.6416 25.1374L33.0681 24.6677L28.7235 17.4305L26.5516 13.8067V12.803C26.5523 11.7137 25.6697 10.8301 24.5804 10.8295C24.3364 10.8291 24.0943 10.8744 23.8671 10.9624L17.6205 13.372L18.0925 11.7879C18.4651 10.4562 17.8605 9.04457 16.6396 8.39534L11.7381 5.76216C11.3816 5.57082 10.9375 5.69301 10.729 6.03978L3.53948 17.5527L3.38775 17.4648C3.02453 17.256 2.56094 17.3815 2.35247 17.7447C2.34777 17.7525 2.34375 17.7602 2.33938 17.7682L0.0885575 22.0057C-0.105473 22.3716 0.0298111 22.8251 0.392024 23.0255L27.7661 38.1979C27.8786 38.26 28.0048 38.2925 28.1334 38.2925H39.4483C41.9609 38.2902 43.9976 36.2539 43.9999 33.7409V29.8173C43.9919 27.3587 42.0935 25.3203 39.6416 25.1374ZM31.4826 24.9749L30.6162 25.2639L23.8281 16.4382L25.5731 15.128L31.4826 24.9749ZM11.6576 7.44097L15.9219 9.72972C16.513 10.0423 16.8084 10.7224 16.6335 11.3676L16.0068 13.4798L11.6522 10.8684L10.1443 9.96336L11.6576 7.44097ZM7.16598 14.6812L7.55438 14.0743L10.0503 15.9306C11.3205 16.8844 11.9691 18.4551 11.7418 20.0275L11.6472 22.2199L4.86715 18.3121L7.16598 14.6812ZM39.4483 36.7755H28.3284L1.77676 22.0581L3.30987 19.1755L28.4483 33.6398C28.5637 33.7063 28.6943 33.7412 28.8276 33.7409H42.4826C42.4826 35.4166 41.124 36.7755 39.4483 36.7755ZM42.4826 32.2235H29.03L23.8268 29.2278L25.5761 27.4443C25.8651 27.1411 25.8537 26.6608 25.5502 26.3717C25.2531 26.0884 24.7845 26.0931 24.4928 26.3821L22.4689 28.4456L19.586 26.7843L22.4773 24.4714C22.8043 24.2095 22.8573 23.7318 22.5955 23.4045C22.3336 23.0776 21.8559 23.0245 21.529 23.2864L18.1734 25.9712L15.7033 24.5509L19.451 21.4276C19.7733 21.1594 19.8169 20.681 19.549 20.3588C19.2808 20.0365 18.8021 19.9929 18.4799 20.2608L14.3015 23.7436L13.1286 23.0685L13.2514 20.1564C13.5324 18.0583 12.6532 15.9729 10.9553 14.7094L8.37045 12.7876L9.34698 11.2544L16.0622 15.2834C16.1525 15.3355 16.2525 15.3677 16.3559 15.3784C16.374 15.3784 16.3898 15.3845 16.4083 15.3858C16.4264 15.3875 16.4378 15.3912 16.4523 15.3912C16.5459 15.3915 16.6392 15.3744 16.7269 15.3405L24.4116 12.3767C24.5522 12.323 24.7096 12.3414 24.8342 12.426C24.9591 12.5116 25.0333 12.6536 25.0322 12.8053V13.6399L22.3011 15.6879C21.966 15.9397 21.8986 16.4154 22.1503 16.7501C22.152 16.7524 22.1537 16.7548 22.1554 16.7568L29.7417 26.6191C29.9377 26.8759 30.2758 26.9793 30.5823 26.8763L32.7146 26.1653L39.5319 26.6524C41.1908 26.7752 42.4762 28.1536 42.4826 29.8173V32.2235Z" fill="#FDF441"/>
<path d="M4.55167 27.6719H0.758667C0.339722 27.6719 0 28.0116 0 28.4305C0 28.8495 0.339722 29.1892 0.758667 29.1892H4.55167C4.97061 29.1892 5.31033 28.8495 5.31033 28.4305C5.31033 28.0116 4.97061 27.6719 4.55167 27.6719Z" fill="#FDF441"/>
<path d="M0 32.9823C0 33.4012 0.339722 33.741 0.758667 33.741H10.6207C11.0396 33.741 11.3793 33.4012 11.3793 32.9823C11.3793 32.5634 11.0396 32.2236 10.6207 32.2236H0.758667C0.339722 32.2236 0 32.5634 0 32.9823Z" fill="#FDF441"/>
<path d="M18.9657 36.7755H0.758667C0.339722 36.7755 0 37.1149 0 37.5338C0 37.9528 0.339722 38.2925 0.758667 38.2925H18.9657C19.3846 38.2925 19.724 37.9528 19.724 37.5338C19.724 37.1149 19.3846 36.7755 18.9657 36.7755Z" fill="#FDF441"/>
</g>
<defs>
<clipPath id="clip0">
<rect width="44" height="44" fill="white"/>
</clipPath>
</defs>
</svg>
