<svg width="42" height="42" viewBox="0 0 42 42" fill="none" xmlns="http://www.w3.org/2000/svg">
<path d="M26.2124 5.58191C25.843 4.09863 24.4914 3.01941 22.9328 3.01941C22.0958 3.01941 21.2838 3.336 20.666 3.89451C20.0479 3.336 19.2363 3.01941 18.399 3.01941C16.8407 3.01941 15.4888 4.09863 15.1194 5.58191C13.5319 6.34294 12.5242 7.9294 12.5242 9.71389C12.5242 10.9187 12.9965 12.0665 13.8325 12.9201C13.7774 13.1717 13.7495 13.4293 13.7495 13.6895C13.7495 15.6262 15.294 17.2088 17.2159 17.2703C17.5851 18.1474 18.4483 18.7411 19.4365 18.7411L19.4558 18.7408C19.9194 18.7373 20.343 18.5588 20.6657 18.2688C20.9871 18.5588 21.4094 18.7373 21.8705 18.7408L21.8952 18.7411C22.8838 18.7411 23.747 18.1474 24.1161 17.2703C26.0381 17.2088 27.5826 15.6262 27.5826 13.6895C27.5826 13.4293 27.5547 13.1717 27.4996 12.9201C28.3353 12.0665 28.8076 10.9187 28.8076 9.71389C28.8076 7.9294 27.7998 6.34294 26.2124 5.58191ZM19.4462 17.5103C19.4442 17.5103 19.4385 17.5107 19.4365 17.5107C19.0559 17.5107 18.7143 17.3303 18.4974 17.0451C18.913 16.8804 19.2981 16.6349 19.6346 16.317C19.8813 16.0838 19.8925 15.6944 19.6592 15.4474C19.4256 15.2003 19.0363 15.1894 18.7893 15.4227C18.4464 15.7467 18.0302 15.9556 17.5844 16.028C17.4995 16.037 17.4149 16.0418 17.3323 16.0418C16.0352 16.0418 14.98 14.9866 14.98 13.6892C14.98 13.4309 15.0216 13.1771 15.1037 12.9349C15.3741 12.2341 15.9733 11.6935 16.6722 11.4997C16.7904 11.8848 16.9766 12.2424 17.224 12.5494C17.3457 12.7 17.5236 12.7785 17.7033 12.7785C17.8389 12.7785 17.9754 12.734 18.0891 12.6423C18.3538 12.4289 18.3951 12.0418 18.182 11.7772C17.9062 11.4346 17.754 10.9815 17.754 10.5009C17.754 10.0891 17.8639 9.70043 18.0721 9.37743C18.2561 9.09193 18.1737 8.71125 17.8879 8.52701C17.6024 8.3434 17.2214 8.42575 17.0375 8.71125C16.742 9.17011 16.569 9.70395 16.5315 10.267C15.6673 10.4525 14.9069 10.9623 14.3933 11.6804C13.9825 11.1135 13.7546 10.4275 13.7546 9.71389C13.7546 8.32321 14.5913 7.09691 15.8855 6.58935C16.0928 6.50828 16.2399 6.32147 16.2703 6.10101C16.4165 5.0455 17.3316 4.24987 18.399 4.24987C18.9969 4.24987 19.5522 4.48955 19.9627 4.92502C20.0194 4.98494 20.0508 5.06473 20.0508 5.149V6.21028C19.2658 6.23719 18.5118 6.54128 17.9196 7.08378C17.669 7.31353 17.6524 7.70253 17.8818 7.95311C18.0032 8.08577 18.1689 8.15274 18.3355 8.15274C18.4839 8.15274 18.6329 8.09955 18.7511 7.99124C19.1135 7.65895 19.5721 7.46894 20.0505 7.44234V16.8906C20.0505 17.2296 19.7794 17.5078 19.4462 17.5103ZM26.9385 11.6804C26.4249 10.9623 25.6645 10.4525 24.8003 10.267C24.7628 9.70395 24.5897 9.17011 24.2943 8.71125C24.1104 8.42575 23.7297 8.3434 23.4439 8.52701C23.158 8.71125 23.0757 9.09193 23.2596 9.37743C23.4676 9.70043 23.5778 10.0891 23.5778 10.5009C23.5778 10.9815 23.4256 11.4346 23.1497 11.7772C22.9363 12.0418 22.978 12.4289 23.2426 12.6423C23.3564 12.734 23.4929 12.7785 23.6284 12.7785C23.8079 12.7785 23.986 12.7 24.1078 12.5494C24.3552 12.2424 24.5414 11.8848 24.6596 11.4997C25.3585 11.6935 25.9577 12.2341 26.2278 12.9352C26.3098 13.1774 26.3518 13.4309 26.3518 13.6892C26.3518 14.9866 25.2963 16.0418 23.9992 16.0418C23.9168 16.0418 23.8319 16.037 23.747 16.028C23.3016 15.9556 22.885 15.7467 22.5422 15.4227C22.2951 15.1894 21.9058 15.2003 21.6725 15.4474C21.4389 15.6944 21.4501 16.0838 21.6972 16.3174C22.0333 16.6349 22.4185 16.8804 22.8341 17.0451C22.6172 17.3303 22.2756 17.5107 21.8949 17.5107L21.8856 17.5103C21.552 17.5078 21.281 17.2296 21.281 16.8906V7.44202C21.7594 7.46862 22.2179 7.65895 22.5806 7.99092C22.6985 8.09923 22.8475 8.15274 22.9959 8.15274C23.1625 8.15274 23.3285 8.08577 23.4496 7.95311C23.6794 7.70253 23.6624 7.31353 23.4118 7.08378C22.8197 6.54128 22.066 6.23687 21.281 6.20996V5.149C21.281 5.06473 21.312 4.98526 21.3688 4.92502C21.7792 4.48955 22.3345 4.24987 22.9325 4.24987C24.0001 4.24987 24.915 5.04583 25.0611 6.10101C25.0915 6.32147 25.2386 6.50828 25.4459 6.58967C26.7402 7.09691 27.5768 8.32321 27.5768 9.71389C27.5771 10.4275 27.3493 11.1135 26.9385 11.6804Z" fill="#BA76F0"/>
<path d="M33.2232 22.3844C33.1675 22.2906 33.0861 22.2108 32.9906 22.1576L28.4347 19.6335C28.7862 19.0635 29.1669 18.5075 29.577 17.9692C31.0709 16.0085 31.8604 13.6655 31.8604 11.1943C31.8604 8.7276 31.0731 6.38716 29.5831 4.42708C29.3777 4.15631 28.9916 4.10376 28.7211 4.30916C28.4504 4.51488 28.3978 4.901 28.6035 5.17144C29.9295 6.91588 30.6303 8.99869 30.6303 11.1943C30.6303 13.3941 29.9276 15.4788 28.5984 17.2236C26.4977 19.9806 25.1047 23.1721 24.561 26.4664H16.7725C16.2332 23.1394 14.8544 19.9674 12.7767 17.28C11.3553 15.4416 10.6209 13.1438 10.7087 10.8098C10.9012 5.68542 15.0633 1.4823 20.1835 1.24166C22.5919 1.12726 24.9554 1.88445 26.8373 3.37157C27.1039 3.5821 27.491 3.5366 27.7015 3.27032C27.9124 3.00372 27.8669 2.61663 27.6003 2.40611C25.4854 0.735054 22.8309 -0.114092 20.1259 0.0124785C17.3346 0.143856 14.7045 1.32016 12.7194 3.32479C10.7349 5.3291 9.58394 7.97106 9.47916 10.7636C9.38047 13.3851 10.2059 15.9668 11.8033 18.0326C12.2 18.546 12.5691 19.0782 12.9107 19.6262L8.3413 22.1579C8.24646 22.2104 8.16314 22.2906 8.10867 22.3848L5.2831 27.2005C5.08699 27.5348 5.03508 27.925 5.13762 28.2993C5.23984 28.6733 5.48305 28.9828 5.82238 29.1709L8.02408 30.3908V34.7227C8.02408 34.9464 8.14552 35.1524 8.3413 35.261L20.3678 41.9238C20.5511 42.025 20.7811 42.0254 20.9641 41.9238L28.4981 37.7498C28.7952 37.5851 28.9028 37.2109 28.7381 36.9135C28.5734 36.6165 28.1988 36.5088 27.9018 36.6735L21.2813 40.3415V31.6232L22.9812 34.5205C23.2478 34.9752 23.7192 35.228 24.2075 35.228C24.4427 35.228 24.6814 35.1694 24.9035 35.0467L32.0773 31.0723V34.36L30.3938 35.2927C30.0968 35.4575 29.9891 35.8317 30.1538 36.1291C30.2663 36.3316 30.4761 36.446 30.6924 36.446C30.7934 36.446 30.8959 36.4213 30.9901 36.3691L32.9906 35.2607C33.1864 35.1524 33.3078 34.946 33.3078 34.7224V30.3904L35.5095 29.1706C35.8488 28.9828 36.092 28.6733 36.1943 28.299C36.2968 27.925 36.2449 27.5348 36.0488 27.2002L33.2232 22.3844ZM20.6658 28.6556L18.9358 27.6969H22.3961L20.6658 28.6556ZM31.423 22.6959L25.9552 25.725C26.3346 23.9917 26.9645 22.2982 27.8207 20.7002L31.423 22.6959ZM13.5275 20.6913C14.3792 22.2761 15.0057 23.9738 15.3822 25.7282L9.90886 22.6959L13.5275 20.6913ZM9.25454 31.0723L10.4075 31.711C10.502 31.7635 10.6042 31.7882 10.7051 31.7882C10.9214 31.7882 11.1316 31.6738 11.2438 31.4709C11.4085 31.1739 11.3008 30.7993 11.0038 30.6346L6.41839 28.0942C6.35558 28.0593 6.33251 28.0042 6.32418 27.9744C6.31585 27.9446 6.30784 27.8853 6.34405 27.8231L8.86617 23.5252L19.816 29.5916L17.2894 33.8979C17.2349 33.9905 17.1186 34.0226 17.0247 33.9703L13.3542 31.9369C13.0571 31.7725 12.6825 31.8798 12.5178 32.1769C12.3534 32.4742 12.4608 32.8485 12.7578 33.0132L16.4284 35.0467C16.6501 35.1697 16.8888 35.228 17.124 35.228C17.6124 35.228 18.0837 34.9752 18.3507 34.5208L20.0506 31.6235V40.3412L9.25454 34.36V31.0723ZM35.0074 27.9744C34.9994 28.0042 34.9763 28.0593 34.9132 28.0942L24.3072 33.9703C24.213 34.0226 24.0967 33.9905 24.0425 33.8979L21.5156 29.5916L32.4657 23.5252L34.9875 27.8231C35.024 27.8853 35.0157 27.9446 35.0074 27.9744Z" fill="#BA76F0"/>
<path d="M7.88476 17.8286H7.88764C8.22762 17.827 8.5016 17.5501 8.49999 17.2105L8.49935 17.0573C8.49743 16.7183 8.22218 16.4449 7.88412 16.4449C7.88284 16.4449 7.88187 16.4449 7.88091 16.4449C7.54125 16.4465 7.26696 16.7234 7.26856 17.0634L7.26952 17.2166C7.27113 17.5553 7.54606 17.8286 7.88476 17.8286Z" fill="#BA76F0"/>
<path d="M7.27458 19.4747C7.27618 19.8137 7.55143 20.087 7.88981 20.087H7.8927C8.23268 20.0854 8.50665 19.8085 8.50505 19.4686L8.5044 19.3154C8.50248 18.9767 8.22755 18.7034 7.88917 18.7034C7.88821 18.7034 7.88693 18.7034 7.88597 18.7034C7.54631 18.705 7.27201 18.9818 7.27394 19.3215L7.27458 19.4747Z" fill="#BA76F0"/>
<path d="M8.93922 18.8789H8.94274L9.09559 18.8783C9.43557 18.8764 9.70954 18.5995 9.70794 18.2599C9.70602 17.9212 9.43108 17.6478 9.0927 17.6478C9.09142 17.6478 9.09046 17.6478 9.0895 17.6478L8.93633 17.6485C8.59635 17.6504 8.32238 17.9272 8.32398 18.2669C8.3259 18.6056 8.60084 18.8789 8.93922 18.8789Z" fill="#BA76F0"/>
<path d="M6.68084 18.8841H6.68437L6.83754 18.8834C7.1772 18.8815 7.45117 18.6046 7.44957 18.265C7.44764 17.9263 7.17271 17.653 6.83433 17.653C6.83337 17.653 6.83209 17.653 6.83113 17.653L6.67796 17.6536C6.33798 17.6555 6.06401 17.9324 6.06593 18.272C6.06753 18.6107 6.34278 18.8841 6.68084 18.8841Z" fill="#BA76F0"/>
<path d="M34.405 13.0496L34.4057 13.2028C34.4076 13.5415 34.6825 13.8148 35.0209 13.8148H35.0241C35.3638 13.8132 35.6381 13.5363 35.6365 13.1967L35.6355 13.0435C35.6339 12.7048 35.3586 12.4312 35.0203 12.4312C35.0193 12.4312 35.0183 12.4312 35.0174 12.4312C34.6774 12.4331 34.4034 12.7099 34.405 13.0496Z" fill="#BA76F0"/>
<path d="M35.0264 16.0735H35.0296C35.3692 16.0716 35.6432 15.7948 35.6416 15.4551L35.6406 15.3019C35.639 14.9629 35.3638 14.6896 35.0257 14.6896C35.0244 14.6896 35.0235 14.6896 35.0222 14.6896C34.6825 14.6915 34.4086 14.9684 34.4102 15.3083L34.4111 15.4612C34.4127 15.8002 34.688 16.0735 35.0264 16.0735Z" fill="#BA76F0"/>
<path d="M36.2292 13.6342C36.2282 13.6342 36.2273 13.6342 36.226 13.6342L36.0728 13.6348C35.7331 13.6367 35.4592 13.9133 35.4605 14.2529C35.4624 14.5919 35.7373 14.8656 36.0757 14.8656H36.0786L36.2317 14.8646C36.5717 14.863 36.8457 14.5862 36.8441 14.2465C36.8428 13.9078 36.5676 13.6342 36.2292 13.6342Z" fill="#BA76F0"/>
<path d="M33.8174 14.8704H33.8206L33.9734 14.8698C34.3134 14.8681 34.5874 14.5913 34.5861 14.2516C34.5842 13.9129 34.3093 13.6393 33.9709 13.6393C33.9699 13.6393 33.969 13.6393 33.968 13.6393L33.8148 13.6399C33.4748 13.6415 33.2009 13.9184 33.2022 14.258C33.2038 14.5971 33.479 14.8704 33.8174 14.8704Z" fill="#BA76F0"/>
<path d="M8.93725 3.19723H8.94045C9.28011 3.19531 9.55408 2.91846 9.55248 2.5788L9.55152 2.42563C9.54992 2.08693 9.27466 1.8136 8.93661 1.8136C8.93532 1.8136 8.93436 1.8136 8.93308 1.8136C8.59342 1.8152 8.31945 2.09206 8.32105 2.43204L8.32201 2.5852C8.32362 2.9239 8.59887 3.19723 8.93725 3.19723Z" fill="#BA76F0"/>
<path d="M9.55689 4.68405C9.55529 4.34535 9.28004 4.07202 8.94198 4.07202C8.9407 4.07202 8.93973 4.07202 8.93845 4.07202C8.59879 4.07362 8.32482 4.35048 8.32642 4.69046L8.32738 4.84363C8.32899 5.18233 8.60424 5.45566 8.94262 5.45566H8.94582C9.28548 5.45374 9.55946 5.17688 9.55785 4.83722L9.55689 4.68405Z" fill="#BA76F0"/>
<path d="M9.99188 4.24767H9.9954L10.1486 4.2467C10.4882 4.2451 10.7622 3.96825 10.7606 3.62827C10.7587 3.28957 10.4837 3.01624 10.1454 3.01624C10.1444 3.01624 10.1431 3.01624 10.1422 3.01624L9.98899 3.0172C9.64901 3.0188 9.37504 3.29565 9.37696 3.63564C9.37857 3.97434 9.65382 4.24767 9.99188 4.24767Z" fill="#BA76F0"/>
<path d="M7.73341 4.25279H7.73661L7.88978 4.25215C8.22976 4.25023 8.50373 3.97337 8.50181 3.63339C8.50021 3.29469 8.22495 3.02136 7.88689 3.02136C7.88561 3.02136 7.88465 3.02136 7.88337 3.02136L7.7302 3.02232C7.39054 3.02393 7.11657 3.3011 7.11817 3.64076C7.12009 3.97946 7.39503 4.25279 7.73341 4.25279Z" fill="#BA76F0"/>
<path d="M32.6863 16.583C32.3466 16.5846 32.0726 16.8615 32.0742 17.2014L32.0752 17.3546C32.0768 17.6933 32.352 17.9666 32.6904 17.9666H32.6936C33.0333 17.9647 33.3073 17.6879 33.3057 17.3482L33.305 17.195C33.3031 16.8551 33.0237 16.5833 32.6863 16.583Z" fill="#BA76F0"/>
<path d="M32.6955 20.2251H32.6987C33.0387 20.2231 33.3126 19.9463 33.3107 19.6066L33.3101 19.4535C33.3081 19.1148 33.0332 18.8414 32.6948 18.8414C32.6936 18.8414 32.6926 18.8414 32.6916 18.8414C32.3516 18.843 32.0777 19.1199 32.0796 19.4599L32.0802 19.613C32.0818 19.9517 32.3571 20.2251 32.6955 20.2251Z" fill="#BA76F0"/>
<path d="M33.7448 19.017H33.7483L33.9015 19.016C34.2412 19.0144 34.5151 18.7375 34.5135 18.3976C34.5116 18.0589 34.2367 17.7855 33.8983 17.7855C33.8973 17.7855 33.896 17.7855 33.8951 17.7855L33.7419 17.7865C33.4019 17.7881 33.128 18.0649 33.1299 18.4049C33.1315 18.7436 33.4067 19.017 33.7448 19.017Z" fill="#BA76F0"/>
<path d="M31.6368 17.7908L31.4836 17.7917C31.1436 17.7933 30.8697 18.0705 30.8716 18.4102C30.8732 18.7489 31.1484 19.0222 31.4868 19.0222H31.49L31.6432 19.0212C31.9829 19.0196 32.2568 18.7428 32.2552 18.4028C32.2536 18.0631 31.9803 17.7901 31.6368 17.7908Z" fill="#BA76F0"/>
<path d="M32.7112 7.07263C32.789 7.34211 33.0348 7.51707 33.3021 7.51707C33.3585 7.51707 33.4158 7.50938 33.4729 7.49272L34.1012 7.31135C34.4277 7.21714 34.6158 6.87588 34.5216 6.54968C34.4274 6.22315 34.0862 6.03474 33.76 6.12927L33.1316 6.31063C32.8051 6.40484 32.6166 6.7461 32.7112 7.07263Z" fill="#BA76F0"/>
<path d="M32.5957 6.09233C32.7572 6.09233 32.9183 6.0292 33.0391 5.90359L33.4925 5.43223C33.7281 5.18742 33.7207 4.79809 33.4759 4.56225C33.2308 4.32674 32.8414 4.33443 32.6059 4.57924L32.1525 5.0506C31.9167 5.29541 31.9243 5.68474 32.1692 5.92058C32.2884 6.03529 32.4422 6.09233 32.5957 6.09233Z" fill="#BA76F0"/>
<path d="M34.2471 8.04323L33.612 7.88622C33.2825 7.8045 32.9487 8.00606 32.8669 8.33578C32.7856 8.66583 32.9868 8.99908 33.3165 9.08079L33.9516 9.23781C34.001 9.24998 34.051 9.25607 34.0997 9.25607C34.3759 9.25607 34.6271 9.06862 34.6966 8.78824C34.778 8.45851 34.5768 8.12494 34.2471 8.04323Z" fill="#BA76F0"/>
<path d="M6.86849 12.8644C6.87906 12.8644 6.88996 12.8644 6.90085 12.8635L7.55422 12.8295C7.89356 12.8116 8.15439 12.5222 8.13645 12.1829C8.11883 11.8435 7.82947 11.5798 7.48981 11.6006L6.83677 11.6349C6.49742 11.6526 6.23659 11.9419 6.25454 12.2816C6.27152 12.61 6.54325 12.8644 6.86849 12.8644Z" fill="#BA76F0"/>
<path d="M6.86115 10.8889L7.4437 11.1859C7.53342 11.2314 7.62859 11.2532 7.72247 11.2532C7.94646 11.2532 8.16243 11.1302 8.27138 10.9171C8.42551 10.6143 8.30502 10.2439 8.00253 10.0894L7.41966 9.79237C7.11685 9.63824 6.74643 9.7584 6.59198 10.0612C6.43785 10.364 6.55834 10.7348 6.86115 10.8889Z" fill="#BA76F0"/>
<path d="M8.22174 14.2788C8.50693 14.0939 8.588 13.7129 8.40279 13.4277C8.2179 13.1429 7.83658 13.0618 7.55171 13.247L7.00313 13.603C6.71826 13.7879 6.63719 14.1692 6.82208 14.4541C6.94 14.6354 7.13739 14.7345 7.33862 14.7345C7.45334 14.7345 7.56966 14.7021 7.67316 14.6351L8.22174 14.2788Z" fill="#BA76F0"/>
</svg>
