<svg width="39" height="39" viewBox="0 0 39 39" fill="none" xmlns="http://www.w3.org/2000/svg">
<path d="M19.4999 16.9001C20.3196 16.9001 21.0333 16.592 21.4499 16.3631C21.8666 16.592 22.5802 16.9001 23.3999 16.9001C24.6102 16.9001 25.9629 16.2124 26.5407 15.3108C26.5979 15.2244 27.9499 13.1581 27.9499 9.75005C27.9499 7.24102 25.9089 5.20007 23.3999 5.20007C22.6648 5.20007 21.9946 5.4698 21.4499 5.75651C20.9052 5.46987 20.2351 5.20007 19.4999 5.20007C16.9909 5.20007 14.95 7.2411 14.95 9.75005C14.95 13.6013 16.1479 15.0976 16.4086 15.3765C16.9961 16.1162 18.2025 16.9001 19.4999 16.9001ZM19.4999 6.5001C20.0797 6.5001 20.6725 6.80037 21.1243 7.06232C21.3258 7.17932 21.5741 7.17932 21.7756 7.06232C22.2273 6.80037 22.8201 6.5001 23.3999 6.5001C25.1919 6.5001 26.65 7.95803 26.65 9.75013C26.65 12.7414 25.4702 14.5731 25.4527 14.5992C25.1491 15.0723 24.232 15.6001 23.4 15.6001C22.5622 15.6001 21.8426 15.0821 21.838 15.0788C21.723 14.993 21.5865 14.9501 21.45 14.9501C21.3135 14.9501 21.177 14.993 21.062 15.0788C21.0548 15.084 20.3379 15.6001 19.5 15.6001C18.6719 15.6001 17.8074 15.06 17.4142 14.5523C17.4012 14.5354 17.3791 14.5107 17.3641 14.4951C17.3531 14.4834 16.2501 13.2744 16.2501 9.75013C16.2499 7.95803 17.7078 6.5001 19.4999 6.5001Z" fill="#59C5D3"/>
<path d="M20.8927 4.23484C21.0142 4.4376 21.2294 4.55011 21.4504 4.55011C21.5641 4.55011 21.6798 4.52017 21.7845 4.45718C22.0919 4.27262 22.192 3.87348 22.0068 3.56536L20.0568 0.315335C19.8721 0.00790485 19.4731 -0.092185 19.1649 0.093065C18.8575 0.27763 18.7574 0.67677 18.9427 0.984886L20.8927 4.23484Z" fill="#59C5D3"/>
<path d="M22.9222 4.14133C22.9677 4.15626 23.3824 4.28956 23.931 4.28956H23.9317C24.7091 4.28956 25.3851 4.02433 25.885 3.52388C27.0745 2.33438 26.5259 0.632701 26.5018 0.56049C26.4368 0.366785 26.2847 0.21467 26.091 0.149695C26.0449 0.134766 25.6302 0.00146484 25.0809 0.00146484C24.3035 0.00146484 23.6281 0.26601 23.1276 0.766535C21.9381 1.95672 22.4874 3.65772 22.5108 3.72993C22.5757 3.92424 22.7278 4.07636 22.9222 4.14133ZM24.0466 1.68563C24.3014 1.43083 24.6492 1.30149 25.0808 1.30149C25.1725 1.30149 25.2589 1.30736 25.3356 1.31642C25.3753 1.66673 25.3571 2.21342 24.9658 2.60472C24.711 2.85951 24.3626 2.98954 23.9316 2.98954C23.84 2.98954 23.7535 2.98306 23.6768 2.97461C23.6371 2.62361 23.6553 2.07692 24.0466 1.68563Z" fill="#59C5D3"/>
<path d="M37.0499 18.2001H5.84987C4.77478 18.2001 3.89987 19.075 3.89987 20.1501V22.7501C3.89987 23.1088 4.19108 23.4 4.54985 23.4C4.90862 23.4 5.19982 23.1088 5.19982 22.7501V20.1501C5.19982 19.7919 5.49164 19.5001 5.8498 19.5001H7.7998V22.7501C7.7998 23.1089 8.091 23.4001 8.44977 23.4001C8.80854 23.4001 9.09975 23.1089 9.09975 22.7501V19.5001H25.9998V22.7501C25.9998 23.1089 26.291 23.4001 26.6498 23.4001C27.0085 23.4001 27.2997 23.1089 27.2997 22.7501V19.5001H33.7997V22.7501C33.7997 23.1089 34.0909 23.4001 34.4497 23.4001C34.8084 23.4001 35.0997 23.1089 35.0997 22.7501V19.5001H37.0497C37.4078 19.5001 37.6996 19.7919 37.6996 20.1501V24.7001H35.7496C35.3909 24.7001 35.0997 24.9913 35.0997 25.35V31.2H34.4497C34.0909 31.2 33.7997 31.4912 33.7997 31.85C33.7997 32.2088 34.0909 32.5 34.4497 32.5H36.3997V37.05C36.3997 37.4081 36.1079 37.6999 35.7497 37.6999H15.5999V34.4499C15.5999 34.0911 15.3087 33.7999 14.9499 33.7999C14.5911 33.7999 14.2999 34.0911 14.2999 34.4499V37.6999H12.9999V34.4499C12.9999 34.0911 12.7087 33.7999 12.3499 33.7999C11.9912 33.7999 11.7 34.0911 11.7 34.4499V37.6999H10.3999V34.4499C10.3999 34.0911 10.1087 33.7999 9.74995 33.7999C9.39118 33.7999 9.09998 34.0911 9.09998 34.4499V37.6999H3.24997C2.89181 37.6999 2.6 37.4081 2.6 37.05V34.45C2.6 34.0912 2.30879 33.8 1.95002 33.8C1.59125 33.8 1.30005 34.0912 1.30005 34.45V37.05C1.30005 38.125 2.17496 39 3.25005 39H35.7501C36.8252 39 37.7001 38.125 37.7001 37.05V32.5C37.7001 31.6556 37.0306 31.2 36.4001 31.2V25.9999H37.7001C38.3306 25.9999 39.0001 25.5443 39.0001 24.6999V20.1499C38.9999 19.075 38.125 18.2001 37.0499 18.2001Z" fill="#59C5D3"/>
<path d="M25.3499 32.5001C25.7087 32.5001 25.9999 32.2089 25.9999 31.8501C25.9999 31.4914 25.7087 31.2002 25.3499 31.2002H18.1999V26.0001H27.2999V35.7501C27.2999 35.99 27.4319 36.2104 27.6432 36.3234C27.8538 36.4358 28.1112 36.4235 28.3107 36.2909L29.9 35.2314L31.4892 36.2909C31.5985 36.3637 31.7239 36.4001 31.85 36.4001C31.9553 36.4001 32.0606 36.3748 32.1568 36.3234C32.368 36.2103 32.5 35.9899 32.5 35.7501V26.0001H33.15C33.5088 26.0001 33.8 25.7089 33.8 25.3502C33.8 24.9914 33.5088 24.7002 33.15 24.7002H1.95C0.856705 24.7002 0 25.5569 0 26.6502V30.5502C0 31.6253 0.87491 32.5002 1.95 32.5002H25.3499V32.5001ZM28.5999 26.0001H31.1999V34.5353L30.2606 33.9093C30.0422 33.7637 29.7575 33.7637 29.5391 33.9093L28.5998 34.5353V26.0001H28.5999ZM7.79993 26.0001H16.9V31.2002H7.79993V26.0001ZM1.29987 30.5501V26.6501C1.29987 26.2796 1.57935 26.0001 1.94985 26.0001H6.49982V31.2002H1.94992C1.58529 31.2002 1.29987 30.9148 1.29987 30.5501Z" fill="#59C5D3"/>
<path d="M13.6497 27.3C13.291 27.3 12.9998 27.5913 12.9998 27.95V29.25C12.9998 29.6088 13.291 29.9 13.6497 29.9C14.0085 29.9 14.2997 29.6088 14.2997 29.25V27.95C14.2997 27.5913 14.0085 27.3 13.6497 27.3Z" fill="#59C5D3"/>
<path d="M11.0499 27.3C10.6911 27.3 10.3999 27.5913 10.3999 27.95V29.25C10.3999 29.6088 10.6911 29.9 11.0499 29.9C11.4086 29.9 11.6999 29.6088 11.6999 29.25V27.95C11.6999 27.5913 11.4087 27.3 11.0499 27.3Z" fill="#59C5D3"/>
</svg>
