<svg width="26" height="49" viewBox="0 0 26 49" fill="none" xmlns="http://www.w3.org/2000/svg">
<path d="M15.5237 23.1357L21.9521 18.9376C22.0724 18.8588 22.1712 18.7512 22.2396 18.6247C22.308 18.4982 22.3438 18.3567 22.3439 18.2128V0.865234C22.3439 0.63576 22.2527 0.415685 22.0904 0.253422C21.9282 0.091159 21.7081 0 21.4786 0H4.52004C4.29056 0 4.07048 0.091159 3.90822 0.253422C3.74596 0.415685 3.6548 0.63576 3.6548 0.865234V18.2128C3.65484 18.3567 3.69067 18.4982 3.75907 18.6247C3.82746 18.7512 3.92627 18.8588 4.04658 18.9376L10.4777 23.1371C8.49596 23.5219 6.63278 24.3682 5.03918 25.6075C4.94693 25.6762 4.86932 25.7626 4.81087 25.8617C4.75243 25.9608 4.71433 26.0706 4.69881 26.1845C4.68329 26.2985 4.69065 26.4145 4.72047 26.5256C4.75029 26.6367 4.80196 26.7407 4.87247 26.8316C4.94298 26.9225 5.0309 26.9984 5.1311 27.0549C5.2313 27.1115 5.34177 27.1474 5.45603 27.1607C5.57029 27.174 5.68606 27.1644 5.79657 27.1324C5.90707 27.1005 6.0101 27.0468 6.09961 26.9745C8.07059 25.438 10.5002 24.6073 12.9993 24.6156C15.2282 24.6156 17.4071 25.2765 19.2603 26.5148C21.1136 27.7531 22.558 29.5132 23.411 31.5724C24.264 33.6317 24.4871 35.8976 24.0523 38.0836C23.6175 40.2697 22.5441 42.2777 20.9681 43.8538C19.392 45.4299 17.384 46.5032 15.1979 46.938C13.0118 47.3729 10.7459 47.1497 8.68668 46.2967C6.62745 45.4438 4.86739 43.9993 3.62908 42.1461C2.39077 40.2928 1.72983 38.114 1.72983 35.8851C1.72455 34.135 2.13121 32.4083 2.91693 30.8446C3.01063 30.6406 3.02142 30.4083 2.94703 30.1965C2.87263 29.9848 2.71887 29.8102 2.51821 29.7097C2.31754 29.6092 2.08568 29.5906 1.87155 29.6578C1.65742 29.725 1.47779 29.8728 1.37058 30.07C0.463836 31.8737 -0.00566486 33.8656 5.1581e-05 35.8844C-0.000695719 38.3476 0.698412 40.7604 2.01595 42.8417C3.33349 44.923 5.21524 46.5871 7.44202 47.6403C9.66879 48.6934 12.149 49.0922 14.5936 48.7902C17.0383 48.4883 19.3469 47.498 21.2505 45.9347C23.1541 44.3713 24.5744 42.2994 25.3459 39.96C26.1174 37.6207 26.2084 35.1104 25.6083 32.7213C25.0082 30.3323 23.7417 28.1629 21.9563 26.4658C20.1709 24.7688 17.9401 23.6139 15.5237 23.1357ZM5.38527 1.73047H20.6134V17.7442L13.8646 22.1514V5.01836C13.8646 4.78888 13.7734 4.56881 13.6111 4.40655C13.4489 4.24428 13.2288 4.15312 12.9993 4.15312C12.7699 4.15312 12.5498 4.24428 12.3875 4.40655C12.2253 4.56881 12.1341 4.78888 12.1341 5.01836V22.1521L5.38527 17.7442V1.73047Z" fill="#FF7373"/>
<path d="M20.3499 33.4603C20.3003 33.3066 20.2085 33.1698 20.085 33.0656C19.9616 32.9614 19.8114 32.8938 19.6515 32.8706L15.5911 32.2802L13.7755 28.6012C13.7039 28.4566 13.5933 28.3349 13.4562 28.2498C13.3191 28.1647 13.161 28.1196 12.9996 28.1196C12.8382 28.1196 12.6801 28.1647 12.543 28.2498C12.4059 28.3349 12.2953 28.4566 12.2237 28.6012L10.408 32.2802L6.34767 32.8706C6.18794 32.8942 6.03798 32.9619 5.91472 33.0662C5.79147 33.1705 5.69983 33.3072 5.65015 33.4608C5.60048 33.6145 5.59475 33.7789 5.63361 33.9356C5.67247 34.0924 5.75437 34.2351 5.87006 34.3477L8.80771 37.2113L8.11552 41.2558C8.08813 41.4148 8.10582 41.5784 8.1666 41.728C8.22738 41.8775 8.32881 42.0071 8.45941 42.1019C8.59002 42.1968 8.74458 42.2532 8.90559 42.2648C9.0666 42.2763 9.22763 42.2426 9.37046 42.1674L12.9996 40.2576L16.6315 42.1674C16.7743 42.2428 16.9355 42.2767 17.0966 42.2652C17.2577 42.2537 17.4124 42.1974 17.5431 42.1025C17.6738 42.0076 17.7754 41.8779 17.8362 41.7283C17.897 41.5786 17.9146 41.4149 17.8871 41.2558L17.1949 37.2113L20.1291 34.3477C20.2451 34.2352 20.3273 34.0924 20.3663 33.9356C20.4054 33.7787 20.3997 33.6141 20.3499 33.4603ZM15.6597 36.2886C15.5593 36.3865 15.4843 36.5074 15.441 36.6407C15.3977 36.7741 15.3875 36.916 15.4112 37.0542L15.8853 39.8188L13.4024 38.5133C13.2783 38.448 13.1402 38.4139 12.9999 38.4139C12.8597 38.4139 12.7216 38.448 12.5974 38.5133L10.1146 39.8188L10.5887 37.0542C10.6124 36.916 10.6022 36.7741 10.5589 36.6407C10.5156 36.5074 10.4406 36.3865 10.3402 36.2886L8.33287 34.3318L11.1085 33.9283C11.2473 33.9079 11.379 33.8542 11.4925 33.7717C11.6059 33.6892 11.6977 33.5805 11.7599 33.4548L12.9996 30.9401L14.2407 33.4555C14.3029 33.5812 14.3946 33.6899 14.5081 33.7724C14.6215 33.8549 14.7533 33.9086 14.892 33.9289L17.6677 34.3325L15.6597 36.2886Z" fill="#FF7373"/>
</svg>
