<svg width="44" height="44" viewBox="0 0 44 44" fill="none" xmlns="http://www.w3.org/2000/svg">
<g clip-path="url(#clip0)">
<path d="M43.3552 21.3555H32.9776V19.8891H35.7775C36.1335 19.8891 36.4221 19.6005 36.4221 19.2445C36.4221 18.8886 36.1335 18.6 35.7775 18.6H32.9776V17.1335H34.9215C35.6457 17.1335 36.3266 16.8515 36.8386 16.3394L41.0775 12.1005C41.3538 12.2381 41.6599 12.3113 41.9776 12.3113C42.5178 12.3113 43.0256 12.1009 43.4076 11.719C43.7896 11.337 43.9999 10.8292 43.9999 10.289C43.9999 9.74883 43.7896 9.24103 43.4076 8.85904C43.0257 8.47705 42.5178 8.26667 41.9776 8.26667C41.4374 8.26667 40.9296 8.47705 40.5476 8.85895C40.1656 9.24094 39.9552 9.74875 39.9552 10.2889C39.9552 10.6066 40.0284 10.9128 40.166 11.189L35.9271 15.4279C35.6585 15.6965 35.3014 15.8444 34.9214 15.8444H32.9775V14.4224C32.9775 12.5475 31.4522 11.0223 29.5775 11.0223H28.1554V5.31654C28.9553 5.04678 29.5332 4.28993 29.5332 3.40014C29.5332 2.28502 28.6259 1.37787 27.5109 1.37787C26.3959 1.37787 25.4886 2.2851 25.4886 3.40014C25.4886 4.28993 26.0665 5.0467 26.8664 5.31654V11.0222H25.3999V8.22233C25.3999 7.86638 25.1114 7.5778 24.7554 7.5778C24.3995 7.5778 24.1109 7.86638 24.1109 8.22233V11.0222H22.6444V0.644651C22.6444 0.288699 22.3558 0.00012207 21.9998 0.00012207C21.6439 0.00012207 21.3553 0.288699 21.3553 0.644651V11.0222H19.8889V8.22233C19.8889 7.86638 19.6003 7.5778 19.2444 7.5778C18.8884 7.5778 18.5998 7.86638 18.5998 8.22233V11.0222H17.1334V9.07844C17.1334 8.35425 16.8513 7.67337 16.3392 7.16135L12.0988 2.92095C12.4735 2.16462 12.3479 1.22155 11.7189 0.592487C10.9304 -0.195987 9.64741 -0.195901 8.85893 0.592487C8.07046 1.38096 8.07046 2.66392 8.85893 3.45248C9.25321 3.84667 9.77107 4.04381 10.2889 4.04381C10.5973 4.04381 10.9051 3.97222 11.1874 3.8324L15.4278 8.07289C15.6964 8.34144 15.8443 8.6986 15.8443 9.07844V11.0222H14.4222C14.1348 11.0222 13.8489 11.0583 13.5725 11.1294C13.2278 11.2181 13.0203 11.5695 13.109 11.9143C13.1976 12.2591 13.5491 12.4666 13.8938 12.3778C14.0653 12.3337 14.243 12.3113 14.4222 12.3113H29.5775C30.7415 12.3113 31.6885 13.2583 31.6885 14.4223V29.5777C31.6885 29.7567 31.6661 29.9344 31.6221 30.1056C31.5335 30.4504 31.7412 30.8017 32.0859 30.8903C32.1397 30.9042 32.1936 30.9108 32.2468 30.9108C32.5339 30.9108 32.7958 30.7175 32.8706 30.4265C32.9415 30.1505 32.9775 29.8648 32.9775 29.5776V28.1555H38.6833C38.953 28.9554 39.7099 29.5333 40.5997 29.5333C41.7148 29.5333 42.6219 28.6261 42.6219 27.511C42.6219 26.3959 41.7147 25.4887 40.5997 25.4887C39.7099 25.4887 38.9531 26.0666 38.6833 26.8665H32.9775V25.4H35.7775C36.1334 25.4 36.422 25.1114 36.422 24.7554C36.422 24.3995 36.1334 24.1109 35.7775 24.1109H32.9775V22.6446H43.3552C43.7112 22.6446 43.9998 22.356 43.9998 22C43.9998 21.6441 43.7112 21.3555 43.3552 21.3555ZM41.459 9.77058C41.5976 9.63204 41.7816 9.55582 41.9775 9.55582C42.1733 9.55582 42.3574 9.63204 42.4959 9.77058C42.6345 9.90911 42.7107 10.0932 42.7107 10.289C42.7107 10.4849 42.6345 10.669 42.4959 10.8075C42.3574 10.946 42.1733 11.0222 41.9775 11.0222C41.7816 11.0222 41.5976 10.946 41.459 10.8075C41.3205 10.669 41.2443 10.4849 41.2443 10.289C41.2443 10.0932 41.3205 9.90902 41.459 9.77058ZM10.8073 2.54103C10.5215 2.82677 10.0563 2.82685 9.7703 2.54094C9.48438 2.25503 9.48438 1.78985 9.7703 1.50402C9.9133 1.36102 10.101 1.28961 10.2888 1.28961C10.4766 1.28961 10.6644 1.36111 10.8073 1.50402C11.0932 1.78994 11.0932 2.25511 10.8073 2.54103ZM27.5109 4.13336C27.1067 4.13336 26.7777 3.80439 26.7777 3.40014C26.7777 2.99589 27.1066 2.66692 27.5109 2.66692C27.9152 2.66692 28.2441 2.99589 28.2441 3.40014C28.2441 3.80439 27.9152 4.13336 27.5109 4.13336ZM40.5997 26.7779C41.0041 26.7779 41.333 27.1068 41.333 27.5111C41.333 27.9154 41.004 28.2443 40.5997 28.2443C40.1955 28.2443 39.8665 27.9153 39.8665 27.5111C39.8664 27.1068 40.1954 26.7779 40.5997 26.7779Z" fill="#6883E4"/>
<path d="M35.1409 40.5476C34.5119 39.9186 33.5688 39.793 32.8124 40.1676L28.572 35.9271C28.3034 35.6586 28.1555 35.3014 28.1555 34.9216V32.9778H29.5776C29.8651 32.9778 30.1509 32.9417 30.4272 32.8706C30.7719 32.7819 30.9794 32.4305 30.8907 32.0857C30.802 31.741 30.4508 31.5335 30.1058 31.6222C29.9345 31.6663 29.7568 31.6886 29.5776 31.6886H14.4222C13.2582 31.6886 12.3113 30.7416 12.3113 29.5777V14.4223C12.3113 14.2431 12.3336 14.0654 12.3777 13.8941C12.4665 13.5494 12.2589 13.198 11.9142 13.1093C11.5695 13.0205 11.2181 13.228 11.1294 13.5727C11.0582 13.8489 11.0222 14.1348 11.0222 14.4223V15.8444H5.31642C5.04666 15.0445 4.28981 14.4666 3.40002 14.4666C2.2849 14.4666 1.37774 15.3738 1.37774 16.4889C1.37774 17.604 2.28498 18.5112 3.40002 18.5112C4.28981 18.5112 5.04657 17.9333 5.31642 17.1334H11.0221V18.6H8.22221C7.86626 18.6 7.57768 18.8885 7.57768 19.2445C7.57768 19.6004 7.86626 19.889 8.22221 19.889H11.0221V21.3555H0.644529C0.288577 21.3555 0 21.644 0 22C0 22.3559 0.288577 22.6445 0.644529 22.6445H11.0221V24.1109H8.22221C7.86626 24.1109 7.57768 24.3995 7.57768 24.7555C7.57768 25.1114 7.86626 25.4 8.22221 25.4H11.0221V26.8665H9.07823C8.35404 26.8665 7.67316 27.1485 7.16114 27.6606L2.92221 31.8995C2.64601 31.7619 2.33981 31.6887 2.02219 31.6887C1.48199 31.6887 0.974184 31.8991 0.592193 32.281C0.210374 32.663 0 33.1709 0 33.711C0 34.2511 0.210374 34.759 0.592365 35.141C0.97427 35.523 1.48216 35.7333 2.02236 35.7333C2.56256 35.7333 3.07036 35.5229 3.45235 35.141C3.83434 34.759 4.04472 34.2512 4.04472 33.711C4.04472 33.3934 3.9715 33.0872 3.83391 32.811L8.07285 28.572C8.3414 28.3035 8.69856 28.1555 9.07849 28.1555H11.0224V29.5776C11.0224 31.4524 12.5477 32.9776 14.4224 32.9776H15.8445V38.6833C15.0446 38.9531 14.4667 39.7099 14.4667 40.5997C14.4667 41.7148 15.374 42.622 16.489 42.622C17.6041 42.622 18.5113 41.7147 18.5113 40.5997C18.5113 39.7099 17.9335 38.9531 17.1335 38.6833V32.9776H18.6V35.7775C18.6 36.1335 18.8886 36.422 19.2445 36.422C19.6005 36.422 19.889 36.1335 19.889 35.7775V32.9776H21.3554V43.3554C21.3554 43.7113 21.644 43.9999 21.9999 43.9999C22.3559 43.9999 22.6444 43.7113 22.6444 43.3554V32.9778H24.1109V35.7777C24.1109 36.1336 24.3994 36.4222 24.7554 36.4222C25.1114 36.4222 25.3999 36.1336 25.3999 35.7777V32.9778H26.8664V34.9216C26.8664 35.6458 27.1484 36.3267 27.6605 36.8387L31.9009 41.0791C31.5263 41.8354 31.6519 42.7785 32.2809 43.4075C32.6751 43.8018 33.1931 43.9989 33.7109 43.9989C34.2288 43.9989 34.7467 43.8018 35.1409 43.4075C35.9294 42.6191 35.9294 41.3361 35.1409 40.5476ZM3.40002 17.2221C2.99568 17.2221 2.6668 16.8932 2.6668 16.4889C2.6668 16.0846 2.99577 15.7557 3.40002 15.7557C3.80427 15.7557 4.13323 16.0847 4.13323 16.4889C4.13332 16.8932 3.80435 17.2221 3.40002 17.2221ZM2.54073 34.2294C2.4022 34.368 2.21812 34.4442 2.02227 34.4442C1.82642 34.4442 1.64235 34.368 1.50381 34.2294C1.36528 34.0909 1.28906 33.9068 1.28906 33.711C1.28906 33.5151 1.36528 33.3311 1.50381 33.1925C1.64235 33.054 1.82642 32.9778 2.02227 32.9778C2.21812 32.9778 2.4022 33.054 2.54073 33.1925C2.67926 33.3311 2.75549 33.5151 2.75549 33.711C2.75549 33.9068 2.67926 34.091 2.54073 34.2294ZM17.2221 40.5999C17.2221 41.0041 16.8932 41.3331 16.4888 41.3331C16.0845 41.3331 15.7556 41.0041 15.7556 40.5999C15.7556 40.1956 16.0846 39.8667 16.4888 39.8667C16.8931 39.8667 17.2221 40.1956 17.2221 40.5999ZM34.2295 42.4961C33.9435 42.782 33.4784 42.7819 33.1925 42.4961C32.9065 42.2102 32.9065 41.745 33.1925 41.4592C33.3355 41.3162 33.5232 41.2448 33.711 41.2448C33.8988 41.2448 34.0865 41.3162 34.2295 41.4592C34.5153 41.745 34.5153 42.2102 34.2295 42.4961Z" fill="#6883E4"/>
<path d="M28.8444 20.2779C28.8444 18.8995 27.8362 17.7319 26.4559 17.3524C26.4968 17.1839 26.5195 17.0106 26.5195 16.8335C26.5195 15.5284 25.3611 14.4667 23.9375 14.4667C23.1663 14.4667 22.4735 14.7785 22 15.2715C21.5265 14.7785 20.8337 14.4667 20.0626 14.4667C18.6388 14.4667 17.4806 15.5284 17.4806 16.8335C17.4806 17.0106 17.5033 17.1839 17.5441 17.3524C16.1639 17.7318 15.1556 18.8994 15.1556 20.2779C15.1556 20.9516 15.394 21.5872 15.8345 22.1121C15.4038 22.6695 15.1556 23.3463 15.1556 24.0668C15.1555 25.1627 15.741 26.1859 16.7055 26.8207C16.7055 26.8212 16.7055 26.8217 16.7055 26.8222C16.7055 28.3172 18.0376 29.5334 19.6751 29.5334C20.6161 29.5334 21.4556 29.1313 22 28.5059C22.5444 29.1313 23.384 29.5334 24.325 29.5334C25.9008 29.5334 27.1932 28.4068 27.2882 26.9895C28.2453 26.4342 28.8444 25.4615 28.8444 24.4112C28.8444 23.6386 28.515 22.9016 27.9481 22.3445C28.5149 21.7875 28.8444 21.0504 28.8444 20.2779ZM26.5633 22.9145C27.1844 23.2422 27.5551 23.8018 27.5551 24.4112C27.5551 24.8655 27.3439 25.2989 26.9873 25.6229C26.6484 24.9955 26.0496 24.4961 25.2929 24.2584C24.9534 24.1517 24.5915 24.3405 24.4848 24.68C24.3781 25.0197 24.567 25.3815 24.9065 25.4881C25.5636 25.6946 26.0051 26.2308 26.0051 26.8223C26.0051 27.6065 25.2513 28.2445 24.3246 28.2445C23.398 28.2445 22.6442 27.6065 22.6442 26.8223V22.689C22.6442 21.9048 23.398 21.2669 24.3246 21.2669C24.6806 21.2669 24.9691 20.9783 24.9691 20.6224C24.9691 20.2664 24.6806 19.9778 24.3246 19.9778C23.7012 19.9778 23.1224 20.1545 22.6442 20.4554V19.6321C22.6442 19.2761 22.3556 18.9876 21.9997 18.9876C21.6437 18.9876 21.3551 19.2761 21.3551 19.6321V23.2103C21.1382 23.0741 20.9004 22.9615 20.6431 22.8806C20.3033 22.7739 19.9417 22.9628 19.835 23.3022C19.7283 23.6418 19.9171 24.0036 20.2566 24.1104C20.9137 24.3169 21.3551 24.853 21.3551 25.4445V26.8222C21.3551 27.6064 20.6013 28.2444 19.6747 28.2444C18.7481 28.2444 17.9942 27.6064 17.9942 26.8222C17.9942 26.4861 18.1367 26.1594 18.3954 25.9022C18.6479 25.6513 18.6491 25.2432 18.3981 24.9907C18.1472 24.7382 17.7392 24.737 17.4867 24.988C17.3323 25.1415 17.1993 25.3093 17.0888 25.4876C16.6818 25.1026 16.4442 24.5961 16.4442 24.0666C16.4442 23.1117 17.1936 22.2728 18.2667 22.0266C18.6137 21.947 18.8304 21.6012 18.7508 21.2542C18.6712 20.9072 18.3253 20.6906 17.9785 20.7702C17.5465 20.8693 17.1488 21.0347 16.7961 21.2518C16.5674 20.9646 16.4443 20.6283 16.4443 20.2777C16.4445 19.3083 17.3635 18.519 18.4964 18.5116C18.5022 18.5117 18.508 18.5125 18.5136 18.5125C18.6608 18.5125 18.8087 18.4624 18.9297 18.3599C19.1768 18.1507 19.2264 17.7958 19.0605 17.5288C19.0556 17.5209 19.0512 17.5128 19.046 17.5052C19.0434 17.5013 19.0402 17.4976 19.0374 17.4937C19.0275 17.4797 19.0172 17.466 19.0061 17.4527C19.0058 17.4523 19.0055 17.4519 19.0052 17.4515C18.8977 17.3244 18.7694 17.1141 18.7694 16.8334C18.7694 16.2391 19.3495 15.7556 20.0623 15.7556C20.7752 15.7556 21.3552 16.2391 21.3552 16.8334C21.3552 17.1893 21.6438 17.4779 21.9998 17.4779C22.3557 17.4779 22.6443 17.1893 22.6443 16.8334C22.6443 16.2391 23.2244 15.7556 23.9372 15.7556C24.6501 15.7556 25.2301 16.2391 25.2301 16.8334C25.2301 16.9922 25.1885 17.1276 25.1335 17.239C24.7669 17.2736 24.4123 17.3622 24.0757 17.5042C23.7476 17.6425 23.5939 18.0205 23.7322 18.3485C23.8704 18.6765 24.2485 18.8304 24.5765 18.692C24.8551 18.5746 25.1549 18.5141 25.4675 18.5117C25.4737 18.5119 25.4798 18.5125 25.486 18.5125C25.4917 18.5125 25.4974 18.5117 25.5032 18.5116C26.6361 18.519 27.5551 19.3083 27.5551 20.2777C27.5551 20.8871 27.1844 21.4466 26.5633 21.7744C26.3519 21.886 26.2195 22.1054 26.2195 22.3444C26.2195 22.5835 26.3519 22.8029 26.5633 22.9145Z" fill="#6883E4"/>
</g>
<defs>
<clipPath id="clip0">
<rect width="44" height="44" fill="white"/>
</clipPath>
</defs>
</svg>
