<svg width="186" height="200" viewBox="0 0 186 200" fill="none" xmlns="http://www.w3.org/2000/svg">
<path d="M102.23 94.9702L128.444 77.8509C128.934 77.5296 129.337 77.0912 129.616 76.5753C129.895 76.0593 130.041 75.4821 130.041 74.8956V4.15476C130.041 3.219 129.669 2.32156 129.008 1.65988C128.346 0.998197 127.449 0.626465 126.513 0.626465H57.3583C56.4225 0.626465 55.5251 0.998197 54.8634 1.65988C54.2017 2.32156 53.83 3.219 53.83 4.15476V74.8956C53.8301 75.4821 53.9763 76.0593 54.2552 76.5753C54.5341 77.0912 54.937 77.5296 55.4276 77.8509L81.6527 94.9759C73.5715 96.5451 65.9737 99.9963 59.4753 105.05C59.0991 105.33 58.7826 105.683 58.5443 106.087C58.306 106.491 58.1506 106.938 58.0873 107.403C58.024 107.868 58.054 108.341 58.1756 108.794C58.2972 109.247 58.5079 109.671 58.7955 110.042C59.083 110.412 59.4415 110.722 59.8501 110.952C60.2587 111.183 60.7092 111.329 61.1751 111.384C61.6411 111.438 62.1132 111.399 62.5638 111.268C63.0144 111.138 63.4345 110.919 63.7995 110.625C71.8369 104.359 81.7445 100.971 91.9356 101.005C101.025 101.005 109.91 103.7 117.467 108.75C125.024 113.8 130.914 120.977 134.393 129.374C137.871 137.771 138.781 147.011 137.008 155.926C135.235 164.84 130.858 173.029 124.431 179.456C118.004 185.883 109.815 190.259 100.901 192.033C91.9865 193.806 82.7465 192.896 74.3492 189.418C65.952 185.939 58.7747 180.049 53.7251 172.492C48.6755 164.934 45.9802 156.049 45.9802 146.96C45.9587 139.824 47.617 132.783 50.8211 126.406C51.2031 125.574 51.2472 124.627 50.9438 123.763C50.6404 122.9 50.0134 122.188 49.1951 121.778C48.3769 121.368 47.4313 121.292 46.5582 121.567C45.685 121.841 44.9525 122.443 44.5153 123.247C40.8177 130.603 38.9032 138.725 38.9265 146.958C38.9234 157.002 41.7743 166.841 47.147 175.328C52.5197 183.816 60.1932 190.602 69.2737 194.896C78.3541 199.191 88.4678 200.817 98.4369 199.586C108.406 198.354 117.82 194.316 125.583 187.941C133.345 181.566 139.137 173.117 142.283 163.577C145.429 154.038 145.8 143.801 143.353 134.059C140.906 124.317 135.741 115.47 128.461 108.55C121.18 101.63 112.083 96.9202 102.23 94.9702ZM60.8866 7.68305H122.985V72.9847L95.4639 90.9564V21.0906C95.4639 20.1548 95.0921 19.2574 94.4304 18.5957C93.7687 17.934 92.8713 17.5623 91.9356 17.5623C90.9998 17.5623 90.1024 17.934 89.4407 18.5957C88.779 19.2574 88.4073 20.1548 88.4073 21.0906V90.9593L60.8866 72.9847V7.68305Z" fill="#FED050"/>
<line x1="152.066" y1="118.577" x2="178.965" y2="106.162" stroke="#FED050" stroke-width="2" stroke-linecap="round"/>
<line x1="1" y1="-1" x2="30.6257" y2="-1" transform="matrix(-0.907959 -0.419058 -0.419058 0.907959 180.292 188.377)" stroke="#FED050" stroke-width="2" stroke-linecap="round"/>
<line x1="156" y1="146" x2="185" y2="146" stroke="#FED050" stroke-width="2" stroke-linecap="round"/>
<line x1="33.2665" y1="176.452" x2="6.36755" y2="188.866" stroke="#FED050" stroke-width="2" stroke-linecap="round"/>
<line x1="1" y1="-1" x2="30.6257" y2="-1" transform="matrix(0.907959 0.419058 0.419058 -0.907959 5.04053 106.651)" stroke="#FED050" stroke-width="2" stroke-linecap="round"/>
<line x1="30" y1="149" x2="1" y2="149" stroke="#FED050" stroke-width="2" stroke-linecap="round"/>
</svg>
