<svg width="48" height="48" viewBox="0 0 48 48" fill="none" xmlns="http://www.w3.org/2000/svg">
<path d="M28.6455 38.5048H25.0081C24.4905 38.5048 24.0707 38.9245 24.0707 39.4422C24.0707 39.96 24.4905 40.3797 25.0081 40.3797H28.6455C29.2069 40.3797 29.6637 40.8363 29.6637 41.3977C29.6637 41.9591 29.207 42.4157 28.6455 42.4157H18.8539C17.3821 42.4157 15.9979 41.7668 15.0567 40.6352L12.7151 37.8207C11.4587 36.3103 9.63008 35.4258 7.67352 35.3698V29.8323H11.125C12.8271 29.8323 14.4388 30.4833 15.6633 31.6653L20.7171 36.5436C21.0744 36.8885 21.0911 37.466 20.7542 37.8309C20.4109 38.2027 19.8282 38.227 19.4552 37.8851L15.4874 34.2479C15.1059 33.8982 14.5128 33.9239 14.1631 34.3055C13.8132 34.6872 13.839 35.2801 14.2206 35.6299L18.1884 39.267C18.7235 39.7575 19.4007 39.9998 20.0761 39.9998C20.8303 39.9998 21.5822 39.6978 22.1319 39.1024C23.1543 37.9948 23.1038 36.2418 22.0192 35.1948L16.9653 30.3165C15.3895 28.7954 13.3154 27.9576 11.125 27.9576H7.49145C7.13877 27.1229 6.31161 26.5355 5.34993 26.5355H0.937404C0.419718 26.5355 0 26.9551 0 27.4729V34.3276C0 34.8453 0.419718 35.265 0.937404 35.265C1.45509 35.265 1.87481 34.8454 1.87481 34.3276V28.4102H5.35002C5.59752 28.4102 5.7988 28.6116 5.7988 28.859V36.3724C5.7988 36.6198 5.59752 36.8212 5.35002 36.8212H4.37643C3.85874 36.8212 3.43902 37.2408 3.43902 37.7586C3.43902 38.2763 3.85874 38.696 4.37643 38.696H5.34993C6.32455 38.696 7.16033 38.0926 7.50486 37.24C8.96623 37.2483 10.3386 37.8955 11.2739 39.0197L13.6155 41.8343C14.9141 43.3953 16.8234 44.2905 18.8539 44.2905H28.6455C30.2406 44.2905 31.5384 42.9928 31.5384 41.3977C31.5384 39.8025 30.2406 38.5048 28.6455 38.5048Z" fill="#FFBF74"/>
<path d="M47.0624 12.3688C46.5447 12.3688 46.125 12.7884 46.125 13.3062V19.5898H42.6498C42.4023 19.5898 42.201 19.3884 42.201 19.141V11.6276C42.201 11.3802 42.4023 11.1788 42.6498 11.1788H43.5546C44.0723 11.1788 44.492 10.7592 44.492 10.2414C44.492 9.72371 44.0723 9.30399 43.5546 9.30399H42.6498C41.6752 9.30399 40.8394 9.90737 40.4949 10.76C39.0335 10.7517 37.6611 10.1045 36.7258 8.98028L34.3842 6.16581C33.0857 4.60478 31.1763 3.70947 29.1457 3.70947H19.3543C17.7592 3.70947 16.4614 5.00716 16.4614 6.60222C16.4614 8.19728 17.7592 9.49496 19.3543 9.49496H23.3581C23.8758 9.49496 24.2955 9.07534 24.2955 8.55756C24.2955 8.03978 23.8758 7.62015 23.3581 7.62015H19.3543C18.7929 7.62015 18.3361 7.1635 18.3361 6.60212C18.3361 6.04084 18.7928 5.58409 19.3543 5.58409H29.1458C30.6177 5.58409 32.0019 6.23303 32.9431 7.36459L35.2847 10.1791C36.5411 11.6894 38.3697 12.5739 40.3263 12.63V18.1675H36.8748C35.1727 18.1675 33.561 17.5165 32.3366 16.3345L27.2827 11.4562C26.9254 11.1113 26.9087 10.5339 27.2456 10.1689C27.5889 9.79702 28.1716 9.77284 28.5447 10.1147L32.5125 13.7519C32.8942 14.1016 33.487 14.076 33.8369 13.6943C34.1867 13.3126 34.1609 12.7197 33.7793 12.3699L29.8114 8.73287C28.6789 7.69478 26.91 7.76875 25.8679 8.89749C24.8455 10.0052 24.896 11.7582 25.9806 12.8051L31.0345 17.6834C32.6103 19.2045 34.6844 20.0423 36.8748 20.0423H40.5084C40.861 20.877 41.6882 21.4644 42.6499 21.4644H47.0625C47.5802 21.4644 47.9999 21.0448 47.9999 20.527V13.306C47.9998 12.7884 47.5801 12.3688 47.0624 12.3688Z" fill="#FFBF74"/>
<path d="M30.2661 35.5915C30.0529 35.1198 29.4989 34.9093 29.0275 35.1224C28.5527 35.3291 28.3356 35.8815 28.5423 36.356C28.6959 36.7088 29.0405 36.9194 29.4022 36.9194C29.5272 36.9194 29.6541 36.8942 29.776 36.8412C29.7799 36.8395 29.7923 36.834 29.7961 36.8323C30.268 36.6192 30.4792 36.0633 30.2661 35.5915Z" fill="#FFBF74"/>
<path d="M32.596 34.0133C32.2896 33.597 31.7005 33.5104 31.2838 33.8155C30.8662 34.1213 30.7754 34.7079 31.0812 35.1255C31.2649 35.3763 31.5495 35.5092 31.8383 35.5092C32.0304 35.5092 32.2244 35.4504 32.3913 35.3282C32.3928 35.3272 32.4016 35.3206 32.403 35.3196C32.8182 35.0121 32.9024 34.4293 32.596 34.0133Z" fill="#FFBF74"/>
<path d="M27.6453 36.6438C27.5385 36.1389 27.0429 35.8157 26.5376 35.9201C26.0328 36.0203 25.7028 36.5092 25.7996 37.0155C25.8854 37.4646 26.2783 37.777 26.7192 37.777C26.7776 37.777 26.8369 37.7715 26.8962 37.7601C26.9023 37.7589 26.9177 37.7558 26.9239 37.7545C27.4302 37.6472 27.7525 37.1501 27.6453 36.6438Z" fill="#FFBF74"/>
<path d="M34.5543 31.9745C34.1699 31.6278 33.5773 31.6582 33.2305 32.0427C33.2259 32.0479 33.2151 32.0601 33.2106 32.0652C32.8723 32.4572 32.916 33.0491 33.308 33.3873C33.4851 33.5401 33.703 33.6149 33.9198 33.6149C34.1802 33.6149 34.439 33.5071 34.6241 33.2967C34.9692 32.9122 34.9382 32.3207 34.5543 31.9745ZM34.0308 32.7649L33.9266 32.6706L34.0394 32.7724L34.0308 32.7649Z" fill="#FFBF74"/>
<path d="M36.9402 26.8942C36.4448 26.744 35.9207 27.0266 35.7705 27.5221C35.6182 28.0169 35.8959 28.5414 36.3907 28.6937C36.4825 28.722 36.5753 28.7354 36.6666 28.7354C37.0673 28.7354 37.4383 28.4765 37.5622 28.0734L37.5662 28.0606C37.7163 27.5651 37.4356 27.0444 36.9402 26.8942Z" fill="#FFBF74"/>
<path d="M38.141 22.0563C38.139 22.0444 38.1367 22.0324 38.1342 22.0205C38.0284 21.5139 37.5319 21.1898 37.0254 21.2955C36.5208 21.4007 36.1963 21.8942 36.2979 22.3987C36.3839 22.846 36.7759 23.159 37.2172 23.159C37.2721 23.159 37.3278 23.1543 37.3835 23.1442C37.8932 23.053 38.2323 22.5659 38.141 22.0563Z" fill="#FFBF74"/>
<path d="M37.2814 24.0901C36.7674 24.0447 36.3108 24.4258 36.2653 24.9414C36.2645 24.9505 36.2632 24.969 36.2626 24.9781C36.2323 25.4949 36.6265 25.9386 37.1433 25.9689C37.1621 25.9701 37.1806 25.9706 37.1992 25.9706C37.6873 25.9706 38.0974 25.5932 38.1333 25.1017C38.1761 24.5879 37.7956 24.1355 37.2814 24.0901Z" fill="#FFBF74"/>
<path d="M36.0227 29.5616C35.5727 29.3065 35.0002 29.4646 34.7451 29.9151L34.732 29.9385C34.4852 30.3936 34.6518 30.9667 35.1067 31.2135C35.2499 31.2911 35.4039 31.328 35.5557 31.328C35.8866 31.328 36.2062 31.1525 36.3754 30.8405L35.5605 30.3772L36.376 30.8394C36.6313 30.3889 36.4732 29.8169 36.0227 29.5616Z" fill="#FFBF74"/>
<path d="M19.0215 11.7094C18.79 11.2463 18.2267 11.0585 17.7639 11.2901L17.7556 11.2943C17.2924 11.5258 17.109 12.0867 17.3405 12.5498C17.5045 12.8778 17.8368 13.0666 18.1812 13.0666C18.3231 13.0666 18.4671 13.0346 18.6022 12.9671C19.0654 12.7356 19.2529 12.1725 19.0215 11.7094Z" fill="#FFBF74"/>
<path d="M21.7333 10.9278C21.6113 10.4248 21.1053 10.1156 20.6014 10.2377C20.5971 10.2387 20.5837 10.2421 20.5794 10.2432C20.0781 10.3724 19.7744 10.884 19.9035 11.3853C20.0125 11.8083 20.3919 12.0894 20.809 12.0894C20.8863 12.0894 20.9648 12.0798 21.0432 12.0596C21.5463 11.9377 21.8553 11.4309 21.7333 10.9278Z" fill="#FFBF74"/>
<path d="M16.5427 13.0611C16.2185 12.6582 15.6283 12.5949 15.225 12.9184L15.8061 13.6539L15.2222 12.9205C14.8172 13.243 14.7503 13.8327 15.0727 14.2377C15.258 14.4702 15.5311 14.5913 15.8068 14.5913C16.0113 14.5913 16.2175 14.5245 16.3901 14.3872L16.4025 14.3772C16.8047 14.0524 16.8669 13.4639 16.5427 13.0611Z" fill="#FFBF74"/>
<path d="M11.5447 19.7306C11.0452 19.5945 10.5299 19.8888 10.3937 20.3883C10.3914 20.3968 10.3869 20.4145 10.3847 20.4232C10.2628 20.9261 10.5718 21.4319 11.0747 21.5541C11.149 21.5721 11.2232 21.5807 11.2963 21.5807C11.7169 21.5807 12.099 21.2953 12.2055 20.87C12.3341 20.3742 12.0403 19.8658 11.5447 19.7306Z" fill="#FFBF74"/>
<path d="M10.9474 22.4849C10.4293 22.4561 9.98733 22.8498 9.95733 23.3665C9.95658 23.3786 9.95611 23.3906 9.95573 23.4026C9.94055 23.9198 10.3475 24.3508 10.8648 24.3663C10.8744 24.3665 10.8838 24.3667 10.8932 24.3667C11.3957 24.3667 11.8109 23.968 11.8295 23.4633C11.8529 22.9515 11.4603 22.5147 10.9474 22.4849Z" fill="#FFBF74"/>
<path d="M12.7244 17.1689C12.2658 16.9284 11.6993 17.1051 11.4588 17.5635L11.4436 17.5937C11.2151 18.058 11.4067 18.6188 11.871 18.8475C12.0039 18.913 12.1448 18.944 12.2838 18.944C12.6281 18.944 12.9595 18.7535 13.1237 18.4253C13.3572 17.9685 13.1798 17.4079 12.7244 17.1689Z" fill="#FFBF74"/>
<path d="M14.4173 14.9137C14.0189 14.583 13.4279 14.6379 13.0973 15.0361C13.0928 15.0416 13.0825 15.0544 13.078 15.0599C12.7566 15.4656 12.8253 16.0541 13.2308 16.3757C13.4029 16.5123 13.6082 16.5785 13.8122 16.5785C14.0872 16.5785 14.3598 16.4581 14.545 16.2273C14.8697 15.8291 14.8135 15.2426 14.4173 14.9137Z" fill="#FFBF74"/>
<path d="M12.0068 26.0651C11.9156 25.5555 11.4282 25.2164 10.9188 25.3077C10.4092 25.399 10.0701 25.886 10.1613 26.3957L10.163 26.4049C10.2442 26.858 10.6377 27.1727 11.0821 27.1727C11.1375 27.1727 11.1937 27.1678 11.2501 27.1577C11.7597 27.0665 12.0981 26.5747 12.0068 26.0651Z" fill="#FFBF74"/>
<path d="M27.2185 18.9492C25.9984 18.9492 24.8678 19.4524 24.0622 20.3015C23.2566 19.4524 22.1261 18.9492 20.906 18.9492C18.5057 18.9492 16.553 20.9019 16.553 23.3022C16.553 24.5974 17.1242 25.8163 18.12 26.6465C18.126 26.6516 18.1322 26.6566 18.1384 26.6615L23.4803 30.8908C23.6508 31.0258 23.8565 31.0932 24.0622 31.0932C24.2688 31.0932 24.4754 31.0251 24.6462 30.889L30.2145 26.4537C30.2418 26.432 30.2677 26.4088 30.2924 26.3842C31.1173 25.5616 31.5715 24.4671 31.5715 23.3022C31.5715 20.9019 29.6188 18.9492 27.2185 18.9492ZM29.0024 25.0226L24.0606 28.959L19.3121 25.1997C18.75 24.7268 18.4278 24.036 18.4278 23.3024C18.4277 21.9358 19.5395 20.824 20.906 20.824C21.912 20.824 22.811 21.4249 23.1963 22.3547C23.3415 22.7048 23.6832 22.9332 24.0622 22.9332C24.4413 22.9332 24.783 22.7049 24.9282 22.3547C25.3135 21.4249 26.2125 20.824 27.2185 20.824C28.585 20.824 29.6968 21.9358 29.6968 23.3023C29.6968 23.9494 29.4505 24.5584 29.0024 25.0226Z" fill="#FFBF74"/>
<path d="M0.937297 38.6928C1.4532 38.6928 1.87142 38.2746 1.87142 37.7587C1.87142 37.2428 1.4532 36.8246 0.937297 36.8246C0.421395 36.8246 0.00317383 37.2428 0.00317383 37.7587C0.00317383 38.2746 0.421395 38.6928 0.937297 38.6928Z" fill="#FFBF74"/>
<path d="M47.0625 11.1754C47.5784 11.1754 47.9967 10.7572 47.9967 10.2413C47.9967 9.72535 47.5784 9.30713 47.0625 9.30713C46.5466 9.30713 46.1284 9.72535 46.1284 10.2413C46.1284 10.7572 46.5466 11.1754 47.0625 11.1754Z" fill="#FFBF74"/>
</svg>
